<svg width="152" height="147" viewBox="0 0 152 147" fill="none" xmlns="http://www.w3.org/2000/svg">
<path d="M38.3263 53.6735C38.2742 53.6208 38.2597 53.432 38.2828 53.1072C38.2956 52.7614 38.293 52.3579 38.275 51.8965C38.2678 51.4039 38.2293 50.8743 38.1597 50.3078C38.1007 49.7099 37.9735 49.1326 37.778 48.5758C37.6035 48.0086 37.3449 47.4829 37.0022 46.9984C36.6594 46.514 36.1904 46.1179 35.5949 45.81C35.2605 45.6611 34.8778 45.6795 34.4468 45.8654C34.0265 46.0199 33.5949 46.3105 33.1518 46.7374C32.7195 47.1328 32.3021 47.6385 31.8998 48.2543C31.5081 48.8387 31.1896 49.4655 30.9441 50.1347C30.6883 50.7829 30.5214 51.4526 30.4435 52.1439C30.3866 52.8249 30.4716 53.4491 30.6985 54.0166C30.8737 54.479 31.0859 54.8839 31.3352 55.2314C31.6055 55.5686 31.8813 55.8639 32.1627 56.1173C32.444 56.3707 32.7256 56.5979 33.0072 56.7989C33.2889 56.9999 33.5446 57.1746 33.7742 57.3228C34.0873 57.5345 34.5105 57.7312 35.0439 57.9129C35.5773 58.0946 36.1681 58.3133 36.8163 58.5691C37.4541 58.8039 38.123 59.1018 38.8229 59.4627C39.5228 59.8237 40.2064 60.2842 40.8735 60.8441C41.5407 61.404 42.1546 62.0946 42.7152 62.9158C43.2759 63.7371 43.7463 64.7202 44.1266 65.8652C44.6608 67.5353 44.9289 69.0098 44.931 70.2886C44.9434 71.5884 44.7998 72.7037 44.5002 73.6347C44.2217 74.5552 43.8447 75.3022 43.3692 75.8756C42.9041 76.47 42.4925 76.9075 42.1343 77.1882C41.8498 77.4065 41.4971 77.6452 41.0761 77.9045C40.6865 78.1745 40.2292 78.3864 39.7041 78.5401C39.2104 78.7046 38.6648 78.7901 38.0673 78.7967C37.4801 78.8243 36.8835 78.6998 36.2773 78.4233C35.5771 78.1148 34.9508 77.7176 34.3984 77.2318C33.9085 76.8198 33.4402 76.2927 32.9937 75.6504C32.5365 75.0394 32.2426 74.309 32.1119 73.4591C32.1871 73.1871 32.2831 72.9309 32.3999 72.6906C32.5168 72.4503 32.644 72.231 32.7816 72.0327C32.9299 71.8031 33.0938 71.5788 33.2734 71.3599C33.5055 71.1413 33.7427 70.9332 33.985 70.7357C34.1957 70.5798 34.4272 70.4398 34.6796 70.3157C34.9426 70.1602 35.2105 70.0676 35.4833 70.038C35.3436 70.5506 35.2883 70.9958 35.3173 71.3733C35.3159 71.5829 35.3252 71.7612 35.3452 71.908C35.4576 72.349 35.6588 72.8377 35.9488 73.3742C36.2701 73.9214 36.6496 74.4008 37.0871 74.8124C37.556 75.2348 38.0677 75.5316 38.6221 75.703C39.1869 75.8953 39.7899 75.8469 40.4312 75.5576C41.9872 74.8446 42.7015 73.0044 42.5742 70.0373C42.5594 69.1043 42.3606 68.2487 41.9778 67.4706C41.6161 66.6821 41.1543 65.982 40.5923 65.3704C40.0513 64.7484 39.4626 64.2152 38.8261 63.7708C38.2003 63.295 37.6106 62.919 37.0568 62.6429C36.5031 62.3667 35.8603 62.0952 35.1283 61.8284C34.407 61.5302 33.665 61.1899 32.9024 60.8075C32.1397 60.4252 31.3932 59.9696 30.663 59.4407C29.9537 58.9015 29.3292 58.2423 28.7892 57.4631C28.0417 56.3681 27.6193 55.2438 27.5221 54.0901C27.4355 52.9051 27.5372 51.7842 27.8271 50.7275C28.1381 49.6604 28.5689 48.7041 29.1195 47.8587C29.6911 47.0029 30.2508 46.362 30.7987 45.9358C33.8537 43.5974 36.3518 43.074 38.293 44.3655C39.076 44.8423 39.6799 45.4594 40.1047 46.2169C40.5294 46.9744 40.8337 47.7258 41.0175 48.4713C41.212 49.1853 41.3179 49.8254 41.3351 50.3915C41.363 50.9263 41.3558 51.2302 41.3134 51.3033C41.2493 51.4915 41.1167 51.7265 40.9157 52.0082C40.7147 52.2899 40.3403 52.6438 39.7924 53.07C39.6449 53.1948 39.487 53.2986 39.3187 53.3813C39.1715 53.4537 39.0086 53.5208 38.83 53.5825C38.6514 53.6442 38.4835 53.6746 38.3263 53.6735ZM53.5561 80.895C53.3778 80.9043 53.1841 80.8821 52.9748 80.8283C52.7969 80.7852 52.6034 80.7106 52.3945 80.6044C52.1959 80.5192 51.9977 80.3817 51.7997 80.1917C51.2818 77.6517 50.8246 75.4475 50.428 73.5792C50.0105 71.7212 49.6748 70.1624 49.421 68.9029C49.0952 67.4438 48.8307 66.2157 48.6276 65.2186C48.4241 64.2739 48.2207 63.3292 48.0172 62.3845C47.8235 61.5657 47.6143 60.6891 47.3899 59.7547C47.1864 58.8101 46.9878 57.9283 46.794 57.1094C46.6009 56.1858 46.4064 55.4717 46.2106 54.9673C46.0044 54.4419 45.6346 54.0883 45.1012 53.9066C45.2502 53.5722 45.425 53.2903 45.6256 53.061C45.837 52.8004 46.0375 52.5973 46.2271 52.4518C46.4274 52.2749 46.6484 52.1401 46.8901 52.0474C47.4786 51.8101 47.9136 51.8182 48.1949 52.0716C48.4973 52.3147 48.7666 52.8091 49.0028 53.5549C49.0335 53.6704 49.059 53.7753 49.0793 53.8698C49.1103 53.9329 49.1466 54.0065 49.1879 54.0906C49.3169 53.6093 49.4825 53.123 49.6849 52.6317C49.8873 52.1404 50.1052 51.6806 50.3386 51.2524C50.593 50.8138 50.8733 50.4278 51.1795 50.0944C51.4963 49.7296 51.8335 49.4593 52.191 49.2835C52.6748 49.0456 53.1259 48.9804 53.5445 49.0879C53.9737 49.1641 54.3707 49.3606 54.7355 49.6775C55.1003 49.9943 55.4279 50.3948 55.7182 50.8789C55.9981 51.3419 56.2466 51.8204 56.4635 52.3145C56.701 52.8506 56.8805 53.4545 57.0019 54.1261C57.1443 54.7874 57.2288 55.4903 57.2553 56.2346C57.2819 56.979 57.2612 57.7336 57.1933 58.4983C57.1254 59.263 57.0158 59.996 56.8645 60.6973C56.9589 60.677 57.0219 60.6722 57.0532 60.6828C57.0743 60.6725 57.0899 60.6778 57.1003 60.6989C57.1003 60.6989 57.116 60.7042 57.1474 60.7149C57.1894 60.6942 57.263 60.658 57.3682 60.6063C57.8519 60.3684 58.2841 59.9991 58.6647 59.4985C59.0453 58.9978 59.3844 58.4393 59.6819 57.8228C59.9691 57.1853 60.2198 56.5266 60.4339 55.8467C60.669 55.1564 60.8619 54.5131 61.0125 53.9166C61.1739 53.2887 61.298 52.7445 61.3849 52.2839C61.4614 51.8022 61.5265 51.4567 61.5803 51.2475C61.6451 50.9544 61.7356 50.7401 61.8518 50.6046C61.9577 50.4481 62.0682 50.3807 62.1833 50.4024C62.2985 50.4241 62.4026 50.5296 62.4957 50.7189C62.5785 50.8871 62.624 51.139 62.6323 51.4745C62.6412 51.7051 62.6124 52.098 62.5459 52.6531C62.4794 53.2082 62.3756 53.8469 62.2346 54.5692C62.0936 55.2916 61.8999 56.0659 61.6534 56.8924C61.4279 57.7085 61.145 58.4875 60.8048 59.2295C60.4645 59.9715 60.0618 60.6397 59.5967 61.2341C59.163 61.8392 58.6622 62.2814 58.0943 62.5607C57.8209 62.6951 57.5949 62.7932 57.4163 62.855C57.2377 62.9167 57.0698 62.947 56.9126 62.946C56.7868 62.9556 56.6557 62.9548 56.5196 62.9434C56.3937 62.9531 56.2417 62.9626 56.0634 62.9719C55.8297 63.4525 55.5492 63.8647 55.222 64.2084C54.9052 64.5732 54.5575 64.8487 54.1789 65.0349C53.8214 65.2108 53.4749 65.3028 53.1394 65.3111C52.8353 65.3301 52.5474 65.2758 52.2757 65.1482C52.0144 65.0417 51.7742 64.8986 51.5553 64.719C51.326 64.5183 51.1229 64.3178 50.946 64.1175C50.9664 64.212 50.9815 64.2959 50.9915 64.3694C51.0226 64.4325 51.0534 64.5218 51.0841 64.6373C51.3283 65.7709 51.6395 67.0675 52.0177 68.5269C52.3449 69.7764 52.7385 71.2936 53.1985 73.0785C53.6899 74.8741 54.2688 76.9009 54.9353 79.1588C55.0884 79.7888 55.0279 80.2234 54.7538 80.4626C54.4587 80.7123 54.0595 80.8564 53.5561 80.895ZM49.7093 58.4964C49.78 58.9057 49.8712 59.3832 49.983 59.929C50.1054 60.4434 50.2533 61.0628 50.4267 61.7872C50.5329 61.5782 50.6757 61.3905 50.8549 61.2239C51.0342 61.0574 51.229 60.9224 51.4393 60.819C51.6707 60.7052 52.0272 60.6866 52.5088 60.7631C52.9802 60.8186 53.5354 60.8589 54.1747 60.8841C54.3039 60.3504 54.423 59.7694 54.532 59.1412C54.6516 58.4816 54.724 57.8322 54.7491 57.193C54.7953 56.5435 54.7838 55.9092 54.7145 55.2903C54.6662 54.6611 54.5336 54.0995 54.3167 53.6054C54.0485 52.9538 53.7318 52.4958 53.3666 52.2313C53.0015 51.9669 52.5981 51.9433 52.1564 52.1605C51.5045 52.4812 50.9808 53.2219 50.5853 54.3828C50.2006 55.5123 49.9086 56.8835 49.7093 58.4964ZM76.8729 44.9014C76.7854 45.4668 76.6654 46.1788 76.513 47.0373C76.3503 47.8748 76.1717 48.7331 75.9773 49.6123C75.7936 50.4602 75.5891 51.2659 75.364 52.0296C75.1496 52.7619 74.9363 53.3108 74.7243 53.6763C74.576 53.9059 74.3859 54.13 74.1539 54.3486C73.9218 54.5672 73.6638 54.7595 73.3797 54.9253C73.1166 55.0808 72.8434 55.1891 72.56 55.2501C72.2869 55.3322 72.0247 55.3567 71.7734 55.3236C71.5117 55.2694 71.2505 55.1367 70.9898 54.9254C70.7709 54.7457 70.5157 54.4925 70.2244 54.1657C69.9541 53.8285 69.6898 53.3708 69.4315 52.7926C69.3405 53.8821 69.1039 54.8082 68.7215 55.5708C68.3288 56.3125 67.9108 56.9229 67.4674 57.4022C66.9503 57.9438 66.3866 58.3909 65.7763 58.7432C65.4819 58.8881 65.1147 58.9381 64.6747 58.8932C64.2451 58.8695 63.8112 58.7042 63.373 58.3973C62.9244 58.0694 62.5031 57.5845 62.109 56.9425C61.7046 56.2795 61.3853 55.4179 61.1511 54.3577C60.8146 52.93 60.7032 51.5352 60.817 50.1733C60.9517 48.8011 61.2167 47.5607 61.6118 46.4522C61.9965 45.3227 62.4638 44.3877 63.0137 43.6471C63.5637 42.9065 64.0908 42.4382 64.5952 42.2424C65.2148 42.0683 65.7602 42.009 66.2315 42.0645C66.6294 42.1299 66.9739 42.3523 67.2649 42.7316C67.5666 43.0795 67.6621 43.6985 67.5514 44.5887C67.8148 44.3808 68.036 44.2198 68.2149 44.1057C68.4149 43.9812 68.5675 43.8931 68.6726 43.8414C68.7988 43.7793 68.8881 43.7485 68.9405 43.7488C68.9822 43.7805 69.0393 43.87 69.1117 44.0172C69.1738 44.1434 69.2612 44.4008 69.3739 44.7894C69.4867 45.1779 69.63 45.7082 69.8038 46.3802C69.9775 47.0521 70.1972 47.9236 70.4627 48.9944C70.5137 49.2044 70.5596 49.4039 70.6003 49.5928C70.6516 49.7504 70.6977 49.9236 70.7384 50.1126C70.7897 50.2701 70.8461 50.4644 70.9075 50.6954C70.9689 50.9264 71.0456 51.2152 71.1377 51.5617C71.2097 51.7613 71.3026 51.9768 71.4164 52.2081C71.5409 52.4081 71.6812 52.5872 71.8374 52.7455C71.9936 52.9037 72.1658 53.0149 72.3541 53.079C72.553 53.1118 72.7787 53.0661 73.0311 52.942C73.2414 52.8385 73.4527 52.5779 73.6651 52.16C73.8671 51.7211 74.0592 51.2087 74.2412 50.6229C74.4129 50.0161 74.5796 49.3726 74.7412 48.6923C74.9136 47.9807 75.0648 47.3056 75.1948 46.6671C75.3247 46.0285 75.4385 45.4633 75.536 44.9713C75.6546 44.4689 75.7357 44.1026 75.7791 43.8723C75.8542 43.6002 75.9708 43.4123 76.1287 43.3085C76.2762 43.1837 76.4231 43.1637 76.5693 43.2485C76.7155 43.3333 76.8191 43.5175 76.8801 43.8009C76.9622 44.0739 76.9598 44.4408 76.8729 44.9014ZM68.3123 50.8356C68.2106 50.3633 68.0937 49.807 67.9617 49.1667C67.8296 48.5265 67.6868 47.9176 67.5334 47.3401C67.38 46.7626 67.2415 46.2952 67.1181 45.938C67.0053 45.5495 66.9121 45.3864 66.8383 45.4488C66.7435 45.5216 66.6433 45.61 66.5378 45.7141C66.4533 45.8079 66.3321 45.9067 66.1742 46.0105C66.0163 46.1143 65.8636 46.2286 65.716 46.3534C65.7188 45.9341 65.6789 45.6142 65.5965 45.3935C65.5248 45.1415 65.4474 44.9575 65.3643 44.8417C65.2709 44.7048 65.1719 44.6098 65.0675 44.5567C64.743 44.4812 64.4105 44.8407 64.0699 45.6351C63.7399 46.3981 63.5222 47.6282 63.4168 49.3256C63.3702 50.0276 63.4075 50.7406 63.5285 51.4646C63.6392 52.1676 63.787 52.8132 63.9718 53.4014C64.1776 53.9793 64.405 54.4682 64.654 54.8681C64.8926 55.247 65.106 55.4685 65.2942 55.5327C65.6394 55.6502 65.9591 55.6366 66.2536 55.4918C66.5377 55.3259 66.7907 55.097 67.0128 54.805C67.2455 54.4815 67.447 54.1212 67.6173 53.724C67.8087 53.3165 67.9528 52.9191 68.0497 52.532C68.1676 52.1344 68.2432 51.7838 68.2767 51.48C68.3311 51.1659 68.343 50.9511 68.3123 50.8356ZM82.6824 48.5085C83.3344 48.1879 83.9253 47.5838 84.4552 46.6963C84.9958 45.7775 85.4635 44.79 85.8582 43.7339C86.274 42.6675 86.611 41.6268 86.8692 40.6117C87.1381 39.5653 87.3217 38.7437 87.42 38.1469C87.4748 37.7804 87.576 37.5347 87.7235 37.4099C87.8608 37.2641 87.9973 37.223 88.1331 37.2868C88.269 37.3506 88.3833 37.5033 88.476 37.745C88.5584 37.9657 88.5827 38.2541 88.549 38.6102C88.5259 38.935 88.4545 39.4272 88.3349 40.0868C88.226 40.715 88.0693 41.4319 87.8648 42.2377C87.6711 43.0121 87.4141 43.8437 87.0938 44.7326C86.7842 45.59 86.4224 46.421 86.0083 47.2254C85.5839 48.0087 85.0971 48.7183 84.5479 49.3541C84.009 50.0109 83.403 50.5048 82.73 50.8358C81.8047 51.2909 80.9386 51.4949 80.1318 51.4477C79.3564 51.4112 78.6449 51.2126 77.9974 50.8519C77.3709 50.481 76.8238 50.0057 76.3559 49.4261C75.8776 48.8255 75.4782 48.1993 75.1575 47.5473C74.8369 46.8953 74.5859 46.0132 74.4045 44.9009C74.2231 43.7887 74.1991 42.6512 74.3325 41.4886C74.4766 40.2947 74.8351 39.165 75.4081 38.0996C75.9708 37.0132 76.8515 36.1752 78.0503 35.5856C78.7233 35.2546 79.405 35.2066 80.0952 35.4417C80.8065 35.6665 81.3482 36.1837 81.7202 36.9932C81.9064 37.3718 82.0295 37.7814 82.0895 38.222C82.1391 38.6416 82.1312 39.0503 82.0657 39.4482C81.9899 39.8251 81.8461 40.17 81.6344 40.4831C81.4438 40.7858 81.1802 41.0199 80.8437 41.1854C80.5703 41.3199 80.3134 41.3287 80.0731 41.2118C79.8435 41.0636 79.6456 40.8736 79.4794 40.6419C79.3239 40.3788 79.1946 40.116 79.0915 39.8532C79.0094 39.5802 78.9687 39.3912 78.9694 39.2864C79.0022 39.0875 79.0661 38.9254 79.1613 38.8003C79.2564 38.6751 79.3674 38.5291 79.4943 38.3622C79.5895 38.2371 79.6376 38.0959 79.6386 37.9387C79.6607 37.7711 79.6355 37.6137 79.5631 37.4665C79.4907 37.3193 79.3866 37.2138 79.2507 37.15C79.1149 37.0862 78.9523 37.1009 78.763 37.1939C78.5737 37.287 78.3043 37.6155 77.9547 38.1792C77.6158 38.7115 77.3334 39.412 77.1076 40.2805C76.8925 41.1176 76.8075 42.0866 76.8527 43.1875C76.8979 44.2884 77.2048 45.4434 77.7734 46.6525C78.0937 47.3569 78.4676 47.8782 78.8952 48.2164C79.3227 48.5546 79.7563 48.7724 80.1959 48.8696C80.6355 48.9668 81.0704 48.9749 81.5007 48.8939C81.931 48.8128 82.3249 48.6844 82.6824 48.5085ZM100.646 32.8564C100.47 34.0921 100.2 35.3482 99.8352 36.6246C99.4601 37.8799 98.991 39.077 98.428 40.2158C97.8757 41.3233 97.2298 42.3201 96.4902 43.2062C95.7717 44.0819 94.9708 44.737 94.0875 45.1715C93.6248 45.399 93.0632 45.5316 92.4026 45.5692C91.7734 45.6175 91.1241 45.5189 90.4549 45.2734C89.7857 45.028 89.1333 44.6044 88.4979 44.0028C87.8835 43.3908 87.3703 42.5332 86.9582 41.4299C86.6182 40.5262 86.4363 39.4926 86.4125 38.329C86.3994 37.1339 86.5223 35.9765 86.7812 34.8567C87.0611 33.7265 87.4819 32.6968 88.0435 31.7676C88.6262 30.828 89.3381 30.1514 90.1794 29.7376C90.9786 29.3445 91.6552 29.2599 92.2093 29.4836C92.7634 29.7074 93.1642 30.124 93.4117 30.7336C93.6693 31.4166 93.7748 32.1091 93.7283 32.8111C93.7028 33.5027 93.5884 34.1728 93.3849 34.8213C93.1815 35.4699 92.9259 36.0919 92.618 36.6873C92.3312 37.2724 92.0499 37.8156 91.774 38.3169C91.4665 38.86 91.1748 39.3822 90.899 39.8835C90.6129 40.3638 90.3689 40.7972 90.1673 41.1837C90.4469 41.6991 90.7588 42.0942 91.1029 42.369C91.4469 42.6438 91.8021 42.8348 92.1682 42.942C92.5241 43.0282 92.8856 43.0463 93.2527 42.9963C93.6306 42.9149 93.9878 42.7915 94.3243 42.6259C95.0394 42.2743 95.6774 41.6862 96.2383 40.8618C96.7889 40.0164 97.2771 39.0972 97.7029 38.1042C98.1394 37.0799 98.5024 36.0655 98.792 35.0612C99.1026 34.0465 99.3441 33.1833 99.5165 32.4717C99.5809 32.231 99.6816 32.064 99.8185 31.9705C99.9661 31.8457 100.103 31.8047 100.228 31.8474C100.364 31.8588 100.479 31.9591 100.572 32.1484C100.655 32.3167 100.679 32.5527 100.646 32.8564ZM90.1805 31.9702C89.9281 32.0944 89.6852 32.3705 89.4518 32.7988C89.2394 33.2167 89.084 33.7502 88.9854 34.3994C88.8764 35.0276 88.8454 35.7611 88.8923 36.6C88.9289 37.4178 89.0908 38.3046 89.378 39.2603C89.5373 38.9469 89.7176 38.6232 89.9189 38.2891C90.1099 37.9339 90.2958 37.5683 90.4764 37.1921C91.0394 36.0533 91.3704 35.1331 91.4693 34.4314C91.5683 33.7298 91.5457 33.1794 91.4015 32.7801C91.2471 32.3598 91.0654 32.0966 90.8564 31.9904C90.6371 31.8632 90.4118 31.8565 90.1805 31.9702ZM48.5068 131.886C47.5183 132.372 46.5153 132.669 45.4979 132.778C44.5015 132.876 43.5376 132.802 42.6064 132.554C41.6961 132.297 40.8604 131.872 40.0991 131.28C39.3481 130.709 38.7398 129.977 38.2739 129.083C37.6736 127.915 37.3457 126.771 37.2902 125.649C37.2136 124.537 37.315 123.469 37.5942 122.443C37.8945 121.408 38.3358 120.446 38.9181 119.559C39.4901 118.651 40.1296 117.827 40.8368 117.087C40.2499 117.063 39.6583 116.975 39.0618 116.824C38.4864 116.663 37.9323 116.439 37.3996 116.153C36.8669 115.866 36.387 115.528 35.9598 115.137C35.5326 114.747 35.2 114.309 34.9621 113.826C34.196 112.374 33.8336 110.894 33.8749 109.385C33.9373 107.865 34.2664 106.437 34.8621 105.099C35.4475 103.74 36.2469 102.524 37.2601 101.451C38.2945 100.368 39.411 99.5315 40.6098 98.9419C41.409 98.5488 42.1598 98.3494 42.8621 98.3435C43.554 98.3166 44.1771 98.415 44.7311 98.6388C45.2749 98.8415 45.7446 99.1328 46.1405 99.5127C46.547 99.8613 46.8538 100.22 47.061 100.588C47.4234 101.272 47.6753 102.023 47.8167 102.841C47.9791 103.649 48.0474 104.425 48.0215 105.17C48.0064 105.882 47.9026 106.521 47.7102 107.086C47.5075 107.629 47.2274 107.989 46.8699 108.165C46.5965 108.299 46.2918 108.397 45.956 108.458C45.6726 108.519 45.3265 108.558 44.9176 108.577C44.5086 108.595 44.0635 108.54 43.5822 108.411C44.0256 107.931 44.3645 107.399 44.5989 106.814C44.823 106.207 44.9528 105.595 44.9883 104.977C45.0449 104.348 45.0121 103.75 44.89 103.184C44.7786 102.585 44.6092 102.055 44.3816 101.592C44.0296 100.93 43.6184 100.492 43.1481 100.279C42.6675 100.046 42.1012 100.089 41.4492 100.41C40.5659 100.844 39.7912 101.499 39.1251 102.375C38.4486 103.231 37.9548 104.218 37.6435 105.337C37.3428 106.425 37.2565 107.604 37.3844 108.873C37.5231 110.111 37.9606 111.319 38.6971 112.498C39.2677 113.393 39.9447 114.052 40.7281 114.477C41.5325 114.891 42.2329 115.173 42.8294 115.324C43.1452 115.116 43.4451 114.93 43.7292 114.764C44.003 114.577 44.2661 114.421 44.5184 114.297C44.876 114.121 45.2645 114.009 45.6841 113.959C46.1037 113.909 46.3704 114 46.4842 114.231C46.567 114.4 46.618 114.61 46.6373 114.861C46.6776 115.103 46.6602 115.359 46.5851 115.631C46.5099 115.903 46.3877 116.159 46.2184 116.399C46.0491 116.639 45.8068 116.837 45.4913 116.992C45.2389 117.116 44.9029 117.203 44.4833 117.253C44.0637 117.302 43.6286 117.321 43.178 117.307C42.4616 117.868 41.886 118.53 41.4512 119.293C41.0061 120.034 40.697 120.813 40.524 121.629C40.3719 122.435 40.3404 123.247 40.4294 124.066C40.5184 124.884 40.7337 125.614 41.0754 126.255C41.3964 126.855 41.791 127.418 42.2592 127.945C42.7378 128.494 43.2748 128.922 43.8703 129.229C44.4657 129.537 45.1198 129.699 45.8324 129.714C46.5765 129.74 47.3586 129.551 48.1788 129.148C48.7887 128.848 49.2998 128.427 49.7122 127.884C50.1559 127.352 50.5214 126.768 50.8086 126.13C51.0957 125.493 51.3202 124.834 51.4819 124.154C51.6436 123.474 51.7578 122.83 51.8247 122.222C51.8916 121.615 51.9266 121.075 51.9297 120.603C51.9538 120.121 51.9665 119.776 51.9679 119.566C51.9689 119.409 52.0065 119.273 52.0806 119.158C52.1758 119.033 52.2863 118.965 52.4121 118.956C52.5487 118.915 52.6795 118.942 52.8047 119.037C52.9298 119.132 53.0229 119.321 53.084 119.605C53.2881 120.445 53.3864 121.441 53.3788 122.594C53.3816 123.768 53.2166 124.946 52.884 126.128C52.5723 127.3 52.0567 128.403 51.3372 129.436C50.649 130.479 49.7055 131.296 48.5068 131.886ZM68.1163 109.782C67.7813 111.331 67.427 112.603 67.0536 113.596C66.691 114.558 66.3243 115.326 65.9537 115.9C65.5831 116.474 65.2186 116.901 64.8604 117.182C64.5022 117.463 64.1653 117.681 63.8499 117.836C63.4503 118.032 63.0672 118.103 62.7007 118.048C62.3342 117.993 61.9891 117.876 61.6653 117.696C61.3416 117.515 61.0547 117.304 60.8047 117.061C60.5548 116.818 60.3465 116.607 60.18 116.428C59.9821 116.238 59.7581 116.022 59.5082 115.779C59.2792 115.526 59.0243 115.247 58.7433 114.941C58.5398 115.589 58.3309 116.28 58.1165 117.012C57.9238 117.629 57.7095 118.335 57.4737 119.13C57.2275 119.904 56.976 120.694 56.7192 121.5C56.5506 121.635 56.3824 121.717 56.2144 121.748C56.0465 121.778 55.8997 121.798 55.7738 121.808C55.6166 121.807 55.4752 121.785 55.3497 121.742C55.2556 121.71 55.1563 121.667 55.0518 121.614C54.9787 121.572 54.9005 121.519 54.817 121.456C54.7022 121.381 54.6295 121.287 54.5988 121.171C54.8673 120.177 55.1306 119.199 55.3884 118.236C55.657 117.242 55.8987 116.353 56.1134 115.568C56.3499 114.668 56.5758 113.8 56.7909 112.963C56.1034 112.308 55.4733 111.691 54.9006 111.111C54.3279 110.53 53.9165 110.119 53.6666 109.876C53.1563 109.37 52.7188 108.958 52.354 108.641C52.0102 108.314 51.6077 108.159 51.1464 108.177C51.285 107.822 51.4389 107.524 51.6082 107.284C51.7881 107.013 51.9573 106.799 52.1155 106.643C52.3055 106.445 52.4846 106.305 52.6528 106.222C53.1366 105.984 53.7692 106.208 54.5509 106.895C55.3432 107.55 56.2958 108.531 57.4088 109.838C57.4399 109.901 57.4971 109.964 57.5805 110.028C57.7636 109.285 57.9411 108.583 58.1132 107.924C58.3062 107.255 58.4621 106.669 58.5807 106.166C58.7203 105.654 58.833 105.246 58.9189 104.942C59.0047 104.639 59.0583 104.456 59.0797 104.393C59.2624 103.702 59.5065 103.243 59.812 103.014C60.1174 102.786 60.4586 102.709 60.8354 102.785C61.003 102.807 61.1811 102.824 61.3697 102.836C61.7258 102.87 62.1294 102.867 62.5804 102.828C62.3883 103.34 62.1801 103.926 61.9557 104.585C61.7419 105.212 61.544 105.819 61.362 106.405C61.1479 107.085 60.9338 107.765 60.7197 108.444C60.5594 108.915 60.3722 109.49 60.1581 110.17C59.9651 110.84 59.7611 111.567 59.5464 112.352C59.9522 112.805 60.353 113.222 60.7488 113.602C61.1446 113.982 61.5146 114.309 61.8587 114.584C62.2238 114.848 62.5527 115.039 62.8455 115.156C63.1382 115.273 63.3897 115.28 63.6 115.177C63.9365 115.011 64.2737 114.741 64.6116 114.366C64.9391 113.97 65.2566 113.5 65.5642 112.957C65.8717 112.414 66.1534 111.819 66.4092 111.17C66.686 110.512 66.942 109.837 67.1771 109.147C67.2626 108.896 67.3738 108.724 67.5107 108.63C67.6686 108.527 67.7998 108.501 67.9043 108.554C68.0087 108.608 68.0865 108.739 68.1375 108.949C68.2096 109.149 68.2025 109.426 68.1163 109.782ZM73.635 128.969C73.4568 128.978 73.263 128.956 73.0537 128.902C72.8758 128.859 72.6824 128.784 72.4734 128.678C72.2748 128.593 72.0766 128.455 71.8787 128.265C71.3608 125.725 70.9035 123.521 70.507 121.653C70.0894 119.795 69.7537 118.236 69.4999 116.977C69.1741 115.517 68.9096 114.289 68.7065 113.292C68.5031 112.348 68.2996 111.403 68.0962 110.458C67.9024 109.639 67.6933 108.763 67.4688 107.828C67.2654 106.884 67.0667 106.002 66.873 105.183C66.6799 104.259 66.4854 103.545 66.2895 103.041C66.0833 102.515 65.7136 102.162 65.1802 101.98C65.3291 101.646 65.5039 101.364 65.7046 101.135C65.9159 100.874 66.1164 100.671 66.306 100.525C66.5063 100.349 66.7273 100.214 66.969 100.121C67.5576 99.8837 67.9925 99.8918 68.2739 100.145C68.5762 100.388 68.8455 100.883 69.0817 101.628C69.1124 101.744 69.1379 101.849 69.1583 101.943C69.1893 102.007 69.2255 102.08 69.2669 102.164C69.3958 101.683 69.5615 101.197 69.7638 100.705C69.9662 100.214 70.1841 99.7542 70.4175 99.326C70.6719 98.8874 70.9522 98.5014 71.2584 98.168C71.5752 97.8032 71.9124 97.5329 72.27 97.3571C72.7537 97.1192 73.2048 97.054 73.6234 97.1615C74.0527 97.2377 74.4497 97.4342 74.8145 97.7511C75.1793 98.0679 75.5068 98.4684 75.7971 98.9525C76.0771 99.4155 76.3255 99.894 76.5424 100.388C76.78 100.924 76.9594 101.528 77.0808 102.2C77.2232 102.861 77.3077 103.564 77.3343 104.308C77.3608 105.053 77.3402 105.807 77.2723 106.572C77.2044 107.337 77.0947 108.07 76.9434 108.771C77.0379 108.751 77.1008 108.746 77.1322 108.756C77.1532 108.746 77.1689 108.751 77.1792 108.772C77.1792 108.772 77.1949 108.778 77.2263 108.789C77.2684 108.768 77.342 108.732 77.4471 108.68C77.9308 108.442 78.363 108.073 78.7436 107.572C79.1243 107.071 79.4634 106.513 79.7609 105.896C80.0481 105.259 80.2987 104.6 80.5128 103.92C80.7479 103.23 80.9408 102.587 81.0915 101.99C81.2528 101.362 81.3769 100.818 81.4638 100.357C81.5403 99.8758 81.6055 99.5303 81.6593 99.3211C81.7241 99.028 81.8146 98.8137 81.9308 98.6782C82.0366 98.5217 82.1471 98.4543 82.2623 98.476C82.3774 98.4977 82.4816 98.6032 82.5746 98.7925C82.6574 98.9607 82.7029 99.2126 82.7112 99.5481C82.7202 99.7787 82.6914 100.172 82.6249 100.727C82.5583 101.282 82.4546 101.921 82.3136 102.643C82.1726 103.365 81.9788 104.14 81.7323 104.966C81.5069 105.782 81.224 106.561 80.8837 107.303C80.5434 108.045 80.1407 108.713 79.6756 109.308C79.2419 109.913 78.7411 110.355 78.1733 110.634C77.8999 110.769 77.6739 110.867 77.4953 110.929C77.3167 110.99 77.1488 111.021 76.9916 111.02C76.8657 111.029 76.7347 111.028 76.5985 111.017C76.4727 111.027 76.3206 111.036 76.1424 111.045C75.9086 111.526 75.6281 111.938 75.3009 112.282C74.9841 112.647 74.6364 112.922 74.2578 113.109C73.9003 113.284 73.5538 113.376 73.2183 113.385C72.9142 113.404 72.6263 113.349 72.3546 113.222C72.0933 113.115 71.8532 112.972 71.6342 112.793C71.4049 112.592 71.2019 112.391 71.025 112.191C71.0453 112.286 71.0605 112.37 71.0705 112.443C71.1015 112.506 71.1324 112.595 71.1631 112.711C71.4072 113.845 71.7184 115.141 72.0967 116.601C72.4239 117.85 72.8175 119.367 73.2775 121.152C73.7688 122.948 74.3478 124.974 75.0143 127.232C75.1674 127.862 75.1069 128.297 74.8328 128.536C74.5377 128.786 74.1384 128.93 73.635 128.969ZM69.7883 106.57C69.859 106.979 69.9502 107.457 70.0619 108.003C70.1843 108.517 70.3322 109.136 70.5057 109.861C70.6119 109.652 70.7546 109.464 70.9339 109.298C71.1132 109.131 71.308 108.996 71.5183 108.893C71.7496 108.779 72.1061 108.76 72.5878 108.837C73.0591 108.892 73.6144 108.933 74.2536 108.958C74.3829 108.424 74.502 107.843 74.6109 107.215C74.7305 106.555 74.8029 105.906 74.8281 105.267C74.8743 104.617 74.8627 103.983 74.7934 103.364C74.7451 102.735 74.6125 102.173 74.3956 101.679C74.1274 101.027 73.8107 100.569 73.4456 100.305C73.0804 100.04 72.677 100.017 72.2354 100.234C71.5834 100.555 71.0597 101.296 70.6643 102.456C70.2795 103.586 69.9875 104.957 69.7883 106.57ZM83.1344 106.941C82.1462 102.595 81.3462 99.1094 80.7345 96.4849C80.1438 93.8501 79.6906 91.8399 79.3747 90.4542C78.9871 88.8165 78.7168 87.6827 78.5637 87.0528C78.4303 86.6222 78.2915 86.2072 78.1474 85.808C78.0239 85.4508 77.8743 85.0934 77.6984 84.7359C77.5226 84.3783 77.3307 84.0679 77.1228 83.8045C77.2393 83.6166 77.3767 83.4445 77.535 83.2883C77.7142 83.1218 77.8882 82.9709 78.0568 82.8358C78.2571 82.6589 78.4626 82.4925 78.6732 82.3367C78.8839 82.1809 79.0839 82.0564 79.2731 81.9633C79.4414 81.8805 79.6095 81.824 79.7774 81.7936C79.9349 81.7423 80.0606 81.7588 80.1544 81.8433C80.3323 81.8864 80.4883 82.0708 80.6225 82.3966C80.7776 82.7121 80.9169 83.0484 81.0404 83.4056C81.1528 83.8466 81.2702 84.3243 81.3926 84.8387C81.585 85.8672 81.8793 87.3418 82.2755 89.2626C82.6107 90.8999 83.0677 93.1303 83.6467 95.9537C84.2467 98.7668 84.9991 102.315 85.9039 106.597C85.8504 106.754 85.7604 106.89 85.6339 107.004C85.5074 107.119 85.381 107.207 85.2548 107.269C85.1076 107.341 84.9447 107.408 84.7661 107.47C84.5982 107.5 84.4199 107.51 84.2314 107.498C84.0638 107.476 83.8807 107.422 83.6821 107.337C83.4939 107.273 83.3113 107.141 83.1344 106.941ZM97.7933 94.1283C97.9761 95.0309 98.0594 95.9172 98.0432 96.787C98.027 97.6569 97.8907 98.4684 97.6342 99.2214C97.3987 99.964 97.0327 100.627 96.5363 101.211C96.0712 101.805 95.4706 102.284 94.7345 102.646C93.8722 103.07 93.0956 103.217 92.4046 103.086C91.7451 102.967 91.1546 102.696 90.6333 102.273C90.133 101.84 89.7015 101.308 89.3388 100.676C88.955 100.055 88.6235 99.461 88.3442 98.8932C88.1477 98.4936 87.983 98.0261 87.8503 97.4906C87.6965 96.9655 87.5796 96.4092 87.4996 95.8217C87.4196 95.2342 87.3817 94.626 87.3858 93.9972C87.4109 93.3579 87.4988 92.7401 87.6495 92.1436C87.5998 91.724 87.634 91.3154 87.7519 90.9179C87.8908 90.51 88.0871 90.1392 88.3409 89.8055C88.6053 89.4403 88.9167 89.1174 89.2749 88.8368C89.6228 88.5351 89.986 88.2911 90.3645 88.105C90.4276 88.0739 90.4854 88.0586 90.5378 88.0589C90.6112 88.0489 90.6847 88.0389 90.7581 88.0289C91.0419 87.9155 91.4301 87.8551 91.9228 87.8479C92.4365 87.8303 92.9757 87.9177 93.5405 88.1101C94.1263 88.2921 94.7007 88.6103 95.2637 89.0647C95.8164 89.4981 96.2945 90.1249 96.6979 90.9451C96.7806 91.1134 96.8736 91.3288 96.9767 91.5916C97.0694 91.8333 97.1467 92.0434 97.2084 92.222C97.599 91.7948 97.99 91.3152 98.3813 90.7832C98.7726 90.2512 99.1377 89.719 99.4766 89.1867C99.8262 88.6229 100.134 88.0799 100.399 87.5575C100.665 87.0352 100.862 86.5858 100.99 86.2093C101.107 85.9165 101.234 85.7235 101.371 85.63C101.508 85.5366 101.634 85.5269 101.748 85.6011C101.863 85.6752 101.946 85.8172 101.997 86.0272C102.048 86.2372 102.036 86.5044 101.961 86.8288C101.917 87.0067 101.768 87.3936 101.513 87.9894C101.278 88.5748 100.975 89.2332 100.604 89.9645C100.232 90.6958 99.8025 91.4424 99.3153 92.2044C98.8282 92.9663 98.3208 93.6076 97.7933 94.1283ZM90.1035 91.9553C90.1335 92.1756 90.2002 92.3909 90.3036 92.6012C90.4691 92.9377 90.666 93.2849 90.8943 93.6428C91.1122 93.9797 91.3777 94.2539 91.6907 94.4656C92.0038 94.6773 92.3908 94.8004 92.8518 94.8348C93.3234 94.8379 93.8853 94.6792 94.5372 94.3585C94.6424 94.3068 94.7475 94.2551 94.8527 94.2033C94.9475 94.1306 95.0423 94.0578 95.1371 93.9851C95.0658 93.6806 94.9994 93.4129 94.938 93.1819C94.8873 92.9195 94.8206 92.7042 94.7379 92.536C94.5834 92.1157 94.3817 91.7056 94.1327 91.3056C93.8838 90.9057 93.6135 90.5685 93.3218 90.2941C93.0408 89.9883 92.7539 89.7767 92.4612 89.6595C92.1792 89.5109 91.912 89.4987 91.6596 89.6228C91.26 89.8194 90.9278 90.1264 90.663 90.5439C90.4089 90.9301 90.2224 91.4005 90.1035 91.9553ZM90.8153 98.5006C91.0014 98.8792 91.2087 99.2474 91.4369 99.6053C91.6548 99.9421 91.8993 100.227 92.1703 100.459C92.4309 100.67 92.713 100.819 93.0164 100.905C93.3095 100.97 93.6242 100.919 93.9607 100.754C94.3393 100.568 94.6449 100.313 94.8777 99.9894C95.1 99.645 95.2702 99.274 95.3881 98.8765C95.4957 98.4579 95.5562 98.0233 95.5696 97.5727C95.5937 97.0907 95.5811 96.6137 95.5318 96.1417C95.3949 96.2351 95.258 96.3286 95.1212 96.422C94.995 96.4841 94.8478 96.5565 94.6795 96.6392C93.8803 97.0323 93.0725 97.1423 92.2561 96.9692C91.4503 96.7648 90.7087 96.3721 90.0312 95.7912C90.1222 96.2949 90.2291 96.7778 90.3518 97.2398C90.4746 97.7018 90.6291 98.122 90.8153 98.5006ZM102.36 97.9159C102.326 98.2197 102.241 98.4445 102.104 98.5903C101.956 98.7675 101.803 98.8556 101.646 98.8546C101.478 98.885 101.332 98.8263 101.207 98.6788C101.082 98.5312 101.021 98.3002 101.023 97.9858C101.024 97.8286 101.031 97.4722 101.045 96.9168C101.038 96.3717 101.043 95.7166 101.058 94.9515C101.042 94.1758 101.037 93.3424 101.043 92.4515C101.039 91.5396 101.034 90.68 101.029 89.8729C101.045 89.0554 101.065 88.3271 101.09 87.6879C101.105 87.0276 101.119 86.5508 101.131 86.2574C100.796 86.1608 100.566 86.0912 100.441 86.0484C100.305 85.9847 100.138 85.8054 99.941 85.5106C99.7644 85.2579 99.6517 84.8693 99.6027 84.3449C99.5537 83.8205 99.5677 83.2912 99.6445 82.7572C99.7111 82.2021 99.8402 81.6946 100.032 81.2346C100.224 80.7747 100.477 80.4671 100.793 80.312C101.381 80.0223 101.885 80.0099 102.302 80.2747C102.741 80.5291 103.079 80.8458 103.318 81.2247C103.495 81.4774 103.644 81.8348 103.767 82.2968C103.89 82.7588 103.918 83.2149 103.852 83.6652C103.936 83.6763 104.046 83.6875 104.182 83.6988C104.308 83.6892 104.487 83.6275 104.718 83.5137C105.055 83.3482 105.276 83.2134 105.381 83.1092C105.508 82.9948 105.718 82.8651 106.012 82.7203C106.37 82.5445 106.711 82.4943 107.035 82.5698C107.35 82.6243 107.647 82.752 107.929 82.953C108.2 83.133 108.445 83.3652 108.664 83.6496C108.892 83.9027 109.08 84.1502 109.225 84.3922C109.546 84.887 109.679 85.5011 109.621 86.2344C109.564 86.9678 109.459 87.7899 109.306 88.7008C109.219 89.2662 109.157 89.8843 109.121 90.5549C109.086 91.2255 109.192 91.7607 109.441 92.1607C109.618 92.4134 109.8 92.598 109.988 92.7146C110.176 92.8311 110.511 92.7704 110.995 92.5325C111.353 92.3566 111.68 92.0391 111.976 91.5798C112.283 91.0892 112.56 90.5355 112.805 89.9187C113.06 89.2705 113.29 88.5959 113.494 87.895C113.687 87.173 113.86 86.4875 114.011 85.8387C114.151 85.1688 114.255 84.5824 114.321 84.0798C114.408 83.5667 114.473 83.195 114.517 82.9647C114.539 82.7448 114.619 82.5619 114.756 82.416C114.894 82.2702 115.041 82.1978 115.198 82.1988C115.355 82.1998 115.491 82.2898 115.605 82.4687C115.74 82.6373 115.791 82.9259 115.757 83.3345C115.734 83.6069 115.678 84.052 115.591 84.6698C115.524 85.2773 115.409 85.9736 115.247 86.7587C115.105 87.5334 114.922 88.355 114.696 89.2235C114.46 90.071 114.171 90.8919 113.831 91.6863C113.501 92.4493 113.119 93.1334 112.685 93.7385C112.273 94.3332 111.803 94.7599 111.278 95.0185C110.731 95.2875 110.227 95.4047 109.766 95.3702C109.305 95.3358 108.886 95.2282 108.51 95.0476C108.145 94.8355 107.821 94.5766 107.54 94.2708C107.27 93.9336 107.068 93.6021 106.934 93.2763C106.831 93.0136 106.765 92.7196 106.735 92.3945C106.717 92.038 106.708 91.6763 106.711 91.3095C106.724 90.9113 106.742 90.5235 106.766 90.1464C106.8 89.7378 106.818 89.3501 106.82 88.9832C106.878 88.1975 106.909 87.5426 106.912 87.0185C106.926 86.4631 106.861 86.0381 106.716 85.7437C106.623 85.5544 106.498 85.4068 106.341 85.301C106.185 85.1951 106.012 85.1888 105.823 85.2819C105.697 85.3439 105.607 85.401 105.554 85.4531C105.512 85.4737 105.46 85.4996 105.397 85.5306C105.355 85.5513 105.286 85.598 105.191 85.6708C105.107 85.7122 104.97 85.7794 104.781 85.8725C104.508 86.007 104.256 86.0787 104.025 86.0877C103.794 86.0966 103.585 86.1215 103.396 86.1621C103.384 86.3507 103.35 86.7593 103.293 87.3878C103.237 88.0164 103.169 88.7549 103.09 89.6034C103.032 90.4416 102.958 91.3268 102.868 92.2591C102.799 93.181 102.731 94.0506 102.663 94.8677C102.584 95.6638 102.527 96.3448 102.492 96.9105C102.425 97.4656 102.381 97.8008 102.36 97.9159ZM127.823 77.439C127.647 78.6747 127.377 79.9307 127.012 81.2071C126.637 82.4624 126.168 83.6595 125.605 84.7984C125.053 85.9058 124.407 86.9026 123.667 87.7887C122.949 88.6645 122.148 89.3196 121.265 89.754C120.802 89.9816 120.24 90.1141 119.58 90.1517C118.95 90.2 118.301 90.1014 117.632 89.856C116.963 89.6105 116.31 89.187 115.675 88.5853C115.061 87.9734 114.547 87.1157 114.135 86.0124C113.795 85.1088 113.613 84.0751 113.59 82.9115C113.576 81.7165 113.699 80.559 113.958 79.4392C114.238 78.309 114.659 77.2793 115.221 76.3501C115.803 75.4105 116.515 74.7339 117.356 74.3201C118.156 73.9271 118.832 73.8424 119.386 74.0662C119.94 74.2899 120.341 74.7066 120.589 75.3161C120.846 75.9991 120.952 76.6916 120.905 77.3936C120.88 78.0852 120.765 78.7553 120.562 79.4039C120.359 80.0524 120.103 80.6744 119.795 81.2698C119.508 81.8549 119.227 82.3981 118.951 82.8995C118.644 83.4425 118.352 83.9647 118.076 84.466C117.79 84.9463 117.546 85.3797 117.344 85.7662C117.624 86.2816 117.936 86.6767 118.28 86.9515C118.624 87.2263 118.979 87.4173 119.345 87.5245C119.701 87.6107 120.063 87.6288 120.43 87.5788C120.808 87.4974 121.165 87.374 121.501 87.2085C122.216 86.8568 122.854 86.2687 123.415 85.4444C123.966 84.5989 124.454 83.6797 124.88 82.6868C125.316 81.6624 125.679 80.6481 125.969 79.6437C126.28 78.629 126.521 77.7658 126.694 77.0542C126.758 76.8135 126.859 76.6465 126.996 76.5531C127.143 76.4282 127.28 76.3872 127.405 76.43C127.541 76.4413 127.656 76.5417 127.749 76.7309C127.832 76.8992 127.856 77.1352 127.823 77.439ZM117.358 76.5528C117.105 76.6769 116.862 76.9531 116.629 77.3813C116.416 77.7992 116.261 78.3327 116.162 78.982C116.053 79.6101 116.022 80.3437 116.069 81.1825C116.106 82.0003 116.268 82.8871 116.555 83.8428C116.714 83.5294 116.895 83.2057 117.096 82.8716C117.287 82.5165 117.473 82.1508 117.653 81.7746C118.216 80.6358 118.547 79.7156 118.646 79.014C118.745 78.3123 118.723 77.7619 118.579 77.3626C118.424 76.9423 118.242 76.6791 118.033 76.5729C117.814 76.4457 117.589 76.439 117.358 76.5528ZM127.503 85.5498C127.469 85.8535 127.384 86.0783 127.247 86.2242C127.099 86.4014 126.946 86.4895 126.789 86.4884C126.621 86.5188 126.475 86.4602 126.35 86.3126C126.225 86.1651 126.164 85.9341 126.166 85.6196C126.167 85.4624 126.174 85.1061 126.188 84.5506C126.182 84.0055 126.186 83.3504 126.201 82.5854C126.185 81.8096 126.18 80.9763 126.186 80.0854C126.182 79.1734 126.177 78.3139 126.172 77.5067C126.188 76.6893 126.208 75.9609 126.233 75.3217C126.248 74.6614 126.262 74.1846 126.274 73.8912C125.939 73.7947 125.709 73.725 125.584 73.6823C125.448 73.6185 125.281 73.4392 125.084 73.1444C124.907 72.8917 124.795 72.5031 124.746 71.9787C124.697 71.4543 124.711 70.9251 124.788 70.391C124.854 69.8359 124.983 69.3284 125.175 68.8685C125.367 68.4085 125.62 68.101 125.936 67.9458C126.525 67.6562 127.028 67.6437 127.445 67.9085C127.884 68.163 128.222 68.4796 128.461 68.8585C128.638 69.1113 128.787 69.4686 128.91 69.9306C129.033 70.3926 129.061 70.8488 128.995 71.2991C129.079 71.3101 129.189 71.3213 129.325 71.3327C129.451 71.323 129.63 71.2613 129.861 71.1475C130.198 70.982 130.419 70.8472 130.524 70.7431C130.651 70.6286 130.861 70.499 131.156 70.3541C131.513 70.1783 131.854 70.1281 132.178 70.2036C132.493 70.2581 132.79 70.3858 133.072 70.5868C133.344 70.7668 133.588 70.999 133.807 71.2834C134.035 71.5365 134.223 71.7841 134.368 72.0261C134.689 72.5208 134.822 73.1349 134.764 73.8682C134.707 74.6016 134.602 75.4237 134.45 76.3346C134.362 76.9001 134.3 77.5181 134.264 78.1887C134.229 78.8593 134.335 79.3946 134.584 79.7945C134.761 80.0472 134.943 80.2319 135.131 80.3484C135.319 80.4649 135.654 80.4042 136.138 80.1663C136.496 79.9905 136.823 79.6729 137.119 79.2137C137.426 78.723 137.703 78.1693 137.948 77.5525C138.204 76.9043 138.433 76.2297 138.637 75.5288C138.83 74.8068 139.003 74.1214 139.154 73.4725C139.294 72.8026 139.398 72.2163 139.464 71.7136C139.551 71.2006 139.616 70.8289 139.66 70.5986C139.682 70.3786 139.762 70.1957 139.899 70.0498C140.037 69.904 140.184 69.8316 140.341 69.8326C140.498 69.8336 140.634 69.9236 140.748 70.1026C140.883 70.2712 140.934 70.5597 140.9 70.9683C140.877 71.2407 140.821 71.6858 140.734 72.3037C140.667 72.9112 140.552 73.6074 140.39 74.3925C140.248 75.1672 140.065 75.9889 139.839 76.8574C139.603 77.7048 139.314 78.5258 138.974 79.3202C138.644 80.0832 138.262 80.7672 137.828 81.3723C137.416 81.9671 136.946 82.3938 136.421 82.6524C135.874 82.9213 135.37 83.0385 134.909 83.0041C134.448 82.9696 134.029 82.862 133.653 82.6814C133.288 82.4694 132.965 82.2104 132.684 81.9046C132.413 81.5674 132.211 81.2359 132.077 80.9101C131.974 80.6474 131.908 80.3535 131.878 80.0283C131.86 79.6718 131.851 79.3102 131.854 78.9433C131.867 78.5451 131.885 78.1574 131.909 77.7802C131.943 77.3716 131.961 76.9839 131.963 76.6171C132.021 75.8313 132.052 75.1764 132.055 74.6523C132.069 74.0969 132.004 73.672 131.859 73.3775C131.766 73.1882 131.641 73.0407 131.484 72.9348C131.328 72.829 131.155 72.8226 130.966 72.9157C130.84 72.9778 130.75 73.0348 130.697 73.0869C130.655 73.1076 130.603 73.1334 130.54 73.1645C130.498 73.1852 130.429 73.2319 130.334 73.3046C130.25 73.346 130.113 73.4132 129.924 73.5063C129.651 73.6408 129.399 73.7125 129.168 73.7215C128.937 73.7305 128.728 73.7553 128.539 73.796C128.527 73.9846 128.493 74.3931 128.436 75.0217C128.38 75.6502 128.312 76.3887 128.233 77.2372C128.175 78.0754 128.101 78.9606 128.011 79.8929C127.942 80.8149 127.874 81.6844 127.806 82.5015C127.727 83.2976 127.67 83.9786 127.635 84.5444C127.568 85.0995 127.524 85.4346 127.503 85.5498Z" fill="white"/>
<line x1="31.6328" y1="84.5211" x2="111.816" y2="43.4272" stroke="white" stroke-linecap="round"/>
<line x1="42.6379" y1="137.956" x2="147.428" y2="84.2398" stroke="white" stroke-linecap="round"/>
</svg>
