<svg width="554" height="989" viewBox="0 0 554 989" fill="none" xmlns="http://www.w3.org/2000/svg">
<g filter="url(#filter0_d_103_63)">
<path d="M147.783 979.94C234.401 793.593 254.229 599.035 260.946 162.255L292.62 162.344C297.656 585.359 311.006 789.436 397.782 980.644L147.783 979.94Z" fill="url(#paint0_linear_103_63)"/>
<path d="M240.785 979.202C273.549 700.332 270.352 509.025 261.219 162.256L292.952 162.345C278.964 520.144 273.996 713.224 308.785 979.393L240.785 979.202Z" fill="url(#paint1_linear_103_63)"/>
<path fill-rule="evenodd" clip-rule="evenodd" d="M219.5 429.998L220.3 145.999L221.3 146.001L220.5 430L219.5 429.998Z" fill="url(#paint2_linear_103_63)"/>
<path fill-rule="evenodd" clip-rule="evenodd" d="M246.257 279.215L246.699 122.215L247.699 122.218L247.257 279.217L246.257 279.215Z" fill="url(#paint3_linear_103_63)"/>
<path fill-rule="evenodd" clip-rule="evenodd" d="M317.369 239.415L317.682 128.415L318.682 128.418L318.369 239.418L317.369 239.415Z" fill="url(#paint4_linear_103_63)"/>
<path fill-rule="evenodd" clip-rule="evenodd" d="M334.5 346L334.5 156L335.5 156L335.5 346L334.5 346Z" fill="url(#paint5_linear_103_63)"/>
<path fill-rule="evenodd" clip-rule="evenodd" d="M316.471 199.309C316.892 198.9 316.984 198.602 316.985 198.414C316.986 198.225 316.895 197.927 316.476 197.515C316.055 197.101 315.38 196.654 314.42 196.196C312.506 195.285 309.671 194.434 306.086 193.707C298.934 192.255 289.005 191.335 278.005 191.304C267.004 191.273 257.071 192.137 249.91 193.548C246.322 194.256 243.482 195.09 241.562 195.991C240.6 196.443 239.923 196.887 239.499 197.298C239.078 197.708 238.986 198.005 238.985 198.194C238.985 198.383 239.075 198.68 239.494 199.093C239.915 199.506 240.59 199.954 241.55 200.411C243.464 201.323 246.299 202.174 249.884 202.901C257.036 204.352 266.965 205.273 277.965 205.304C288.966 205.335 298.899 204.47 306.06 203.059C309.649 202.352 312.488 201.517 314.408 200.616C315.37 200.165 316.048 199.721 316.471 199.309ZM277.963 206.304C300.054 206.366 317.973 202.835 317.985 198.416C317.997 193.998 300.099 190.366 278.008 190.304C255.916 190.242 237.998 193.773 237.985 198.191C237.973 202.609 255.871 206.242 277.963 206.304Z" fill="url(#paint6_linear_103_63)"/>
<path fill-rule="evenodd" clip-rule="evenodd" d="M335.008 224.173C335.684 223.506 335.916 222.938 335.917 222.467C335.918 221.996 335.69 221.426 335.018 220.755C334.344 220.082 333.297 219.383 331.858 218.686C328.984 217.294 324.76 216.009 319.458 214.915C308.871 212.731 294.194 211.349 277.948 211.304C261.702 211.258 247.018 212.557 236.418 214.681C231.11 215.745 226.879 217.006 223.998 218.382C222.555 219.071 221.503 219.764 220.826 220.434C220.151 221.101 219.919 221.669 219.917 222.14C219.916 222.611 220.145 223.181 220.816 223.852C221.49 224.526 222.538 225.224 223.977 225.921C226.85 227.313 231.074 228.598 236.376 229.692C246.964 231.876 261.64 233.258 277.886 233.304C294.132 233.349 308.816 232.051 319.416 229.926C324.724 228.862 328.955 227.601 331.836 226.225C333.279 225.536 334.331 224.843 335.008 224.173ZM277.883 234.303C310.468 234.395 336.898 229.097 336.917 222.47C336.936 215.842 310.536 210.395 277.951 210.304C245.366 210.212 218.936 215.51 218.917 222.137C218.899 228.765 245.299 234.212 277.883 234.303Z" fill="url(#paint7_linear_103_63)"/>
<path fill-rule="evenodd" clip-rule="evenodd" d="M362.297 264.46C363.366 263.403 363.805 262.431 363.808 261.546C363.81 260.661 363.377 259.686 362.313 258.623C361.247 257.558 359.621 256.481 357.437 255.423C353.073 253.309 346.69 251.372 338.721 249.727C322.798 246.442 300.749 244.368 276.356 244.3C251.964 244.231 229.903 246.181 213.962 249.376C205.983 250.976 199.59 252.877 195.214 254.966C193.024 256.012 191.392 257.08 190.32 258.139C189.25 259.196 188.811 260.168 188.809 261.053C188.806 261.938 189.24 262.913 190.303 263.976C191.369 265.041 192.995 266.118 195.18 267.176C199.544 269.29 205.926 271.228 213.896 272.872C229.819 276.157 251.868 278.231 276.26 278.3C300.653 278.368 322.714 276.419 338.655 273.223C346.633 271.624 353.027 269.722 357.403 267.633C359.593 266.588 361.225 265.519 362.297 264.46ZM276.258 279.3C325.135 279.437 364.78 271.49 364.808 261.549C364.836 251.608 325.236 243.437 276.359 243.3C227.482 243.162 187.837 251.109 187.809 261.05C187.781 270.992 227.381 279.162 276.258 279.3Z" fill="url(#paint8_linear_103_63)"/>
<path fill-rule="evenodd" clip-rule="evenodd" d="M408.064 348.605C409.787 346.899 410.572 345.253 410.576 343.677C410.581 342.101 409.806 340.452 408.091 338.736C406.375 337.018 403.788 335.31 400.365 333.651C393.525 330.334 383.558 327.309 371.157 324.747C346.372 319.627 312.076 316.4 274.153 316.293C236.23 316.186 201.916 319.221 177.103 324.201C164.688 326.693 154.704 329.661 147.845 332.94C144.413 334.58 141.817 336.273 140.09 337.982C138.366 339.688 137.582 341.333 137.577 342.909C137.573 344.485 138.348 346.134 140.062 347.85C141.779 349.568 144.366 351.276 147.788 352.935C154.629 356.252 164.596 359.277 176.997 361.839C201.782 366.959 236.078 370.186 274.001 370.293C311.924 370.4 346.238 367.366 371.051 362.385C383.466 359.894 393.45 356.925 400.309 353.646C403.741 352.006 406.337 350.313 408.064 348.605ZM273.998 371.293C349.937 371.507 411.533 359.144 411.576 343.68C411.62 328.216 350.095 315.507 274.156 315.293C198.217 315.079 136.621 327.442 136.577 342.906C136.534 358.37 198.059 371.079 273.998 371.293Z" fill="url(#paint9_linear_103_63)"/>
<path fill-rule="evenodd" clip-rule="evenodd" d="M542.883 504.027C546.41 500.536 548.144 497.04 548.154 493.566C548.164 490.091 546.449 486.585 542.942 483.074C539.432 479.561 534.198 476.119 527.364 472.805C513.702 466.179 493.858 460.163 469.249 455.079C420.048 444.914 352.011 438.513 276.809 438.301C201.606 438.09 133.534 444.107 84.2766 453.995C59.6397 458.94 39.7621 464.844 26.0627 471.393C19.2107 474.669 13.9571 478.081 10.4274 481.575C6.9001 485.066 5.16599 488.562 5.15621 492.037C5.14642 495.511 6.86081 499.017 10.3684 502.528C13.8783 506.041 19.1126 509.483 25.9461 512.797C39.6084 519.424 59.4524 525.439 84.0611 530.523C133.262 540.689 201.299 547.089 276.502 547.301C351.704 547.513 419.776 541.495 469.034 531.607C493.671 526.662 513.548 520.758 527.248 514.209C534.1 510.933 539.353 507.521 542.883 504.027ZM276.499 548.301C426.996 548.725 549.068 524.22 549.154 493.568C549.24 462.917 427.308 437.725 276.811 437.301C126.314 436.877 4.24253 461.382 4.15621 492.034C4.0699 522.685 126.002 547.877 276.499 548.301Z" fill="url(#paint10_linear_103_63)"/>
<path fill-rule="evenodd" clip-rule="evenodd" d="M296.099 169.709C296.099 169.709 296.098 169.711 296.095 169.715C296.097 169.711 296.098 169.709 296.099 169.709ZM295.94 169.854C295.777 169.732 295.511 169.58 295.112 169.414C294.2 169.033 292.82 168.667 291.039 168.351C287.494 167.72 282.556 167.317 277.072 167.301C271.589 167.286 266.648 167.661 263.1 168.272C261.317 168.579 259.935 168.937 259.021 169.312C258.621 169.476 258.354 169.626 258.19 169.748C258.353 169.871 258.619 170.022 259.018 170.189C259.93 170.569 261.311 170.935 263.091 171.252C266.636 171.882 271.575 172.286 277.058 172.301C282.542 172.317 287.482 171.941 291.031 171.33C292.813 171.024 294.196 170.666 295.11 170.29C295.51 170.126 295.777 169.976 295.94 169.854ZM258.033 169.602C258.033 169.602 258.034 169.604 258.036 169.608C258.034 169.604 258.033 169.602 258.033 169.602ZM258.032 169.893C258.032 169.893 258.033 169.891 258.036 169.888C258.033 169.891 258.032 169.893 258.032 169.893ZM296.094 169.995C296.097 169.999 296.098 170 296.098 170C296.098 170 296.096 169.999 296.094 169.995ZM277.055 173.301C288.101 173.332 297.06 171.79 297.065 169.857C297.071 167.925 288.121 166.332 277.075 166.301C266.029 166.27 257.071 167.812 257.065 169.745C257.06 171.678 266.01 173.27 277.055 173.301Z" fill="url(#paint11_linear_103_63)"/>
<path fill-rule="evenodd" clip-rule="evenodd" d="M298.073 172.279C298.073 172.279 298.073 172.281 298.071 172.285C298.072 172.281 298.073 172.279 298.073 172.279ZM298.009 172.36C297.993 172.343 297.973 172.323 297.948 172.301C297.769 172.141 297.446 171.939 296.937 171.719C295.926 171.281 294.402 170.862 292.442 170.5C288.537 169.779 283.101 169.318 277.067 169.301C271.033 169.284 265.595 169.714 261.687 170.413C259.725 170.764 258.198 171.175 257.185 171.607C256.674 171.824 256.351 172.024 256.17 172.184C256.145 172.206 256.125 172.225 256.109 172.242C256.125 172.259 256.145 172.278 256.17 172.301C256.349 172.461 256.672 172.663 257.181 172.883C258.192 173.321 259.716 173.74 261.676 174.102C265.58 174.823 271.016 175.284 277.051 175.301C283.085 175.318 288.523 174.888 292.431 174.189C294.393 173.838 295.92 173.427 296.933 172.995C297.444 172.777 297.767 172.578 297.948 172.418C297.973 172.396 297.993 172.377 298.009 172.36ZM256.045 172.161C256.045 172.161 256.046 172.163 256.048 172.166C256.046 172.163 256.045 172.161 256.045 172.161ZM256.045 172.322C256.045 172.322 256.045 172.321 256.047 172.317C256.046 172.321 256.045 172.322 256.045 172.322ZM298.07 172.435C298.072 172.439 298.073 172.441 298.073 172.441C298.073 172.441 298.072 172.439 298.07 172.435ZM277.048 176.301C289.198 176.335 299.053 174.572 299.059 172.363C299.065 170.154 289.22 168.335 277.07 168.301C264.92 168.267 255.065 170.03 255.059 172.239C255.053 174.448 264.897 176.267 277.048 176.301Z" fill="url(#paint12_linear_103_63)"/>
<path fill-rule="evenodd" clip-rule="evenodd" d="M301.054 175.823C301.054 175.823 301.054 175.825 301.052 175.828C301.053 175.825 301.054 175.823 301.054 175.823ZM301.028 175.868C301.004 175.835 300.96 175.782 300.88 175.712C300.661 175.518 300.279 175.284 299.694 175.033C298.531 174.534 296.786 174.06 294.554 173.652C290.107 172.839 283.921 172.32 277.058 172.301C270.195 172.281 264.005 172.765 259.554 173.554C257.319 173.949 255.572 174.413 254.406 174.905C253.82 175.153 253.437 175.385 253.217 175.577C253.136 175.648 253.092 175.7 253.068 175.733C253.092 175.767 253.136 175.819 253.216 175.89C253.435 176.083 253.816 176.317 254.402 176.568C255.565 177.067 257.309 177.541 259.541 177.949C263.989 178.763 270.175 179.281 277.038 179.301C283.901 179.32 290.09 178.836 294.542 178.048C296.776 177.652 298.523 177.188 299.689 176.696C300.276 176.448 300.659 176.216 300.879 176.024C300.959 175.953 301.004 175.902 301.028 175.868ZM253.042 175.688C253.042 175.688 253.043 175.689 253.044 175.693C253.042 175.689 253.042 175.688 253.042 175.688ZM253.042 175.778C253.041 175.778 253.042 175.777 253.043 175.773C253.042 175.777 253.042 175.778 253.042 175.778ZM301.052 175.908C301.053 175.912 301.054 175.913 301.054 175.913C301.054 175.913 301.053 175.912 301.052 175.908ZM277.035 180.301C290.842 180.339 302.041 178.356 302.048 175.871C302.055 173.386 290.868 171.34 277.06 171.301C263.253 171.262 252.055 173.245 252.048 175.73C252.041 178.215 263.228 180.262 277.035 180.301Z" fill="url(#paint13_linear_103_63)"/>
<path fill-rule="evenodd" clip-rule="evenodd" d="M306.031 183.346C306.031 183.346 306.031 183.347 306.03 183.35C306.031 183.347 306.031 183.346 306.031 183.346ZM306.012 183.383C305.986 183.341 305.924 183.263 305.786 183.15C305.502 182.916 305.021 182.646 304.305 182.362C302.885 181.798 300.769 181.267 298.083 180.811C292.726 179.903 285.285 179.324 277.038 179.301C268.791 179.278 261.347 179.814 255.985 180.693C253.296 181.133 251.178 181.652 249.754 182.208C249.037 182.489 248.555 182.756 248.269 182.988C248.13 183.1 248.068 183.178 248.041 183.219C248.068 183.261 248.129 183.339 248.267 183.452C248.552 183.686 249.033 183.956 249.748 184.24C251.169 184.804 253.284 185.335 255.971 185.791C261.328 186.699 268.769 187.278 277.016 187.301C285.262 187.324 292.706 186.788 298.068 185.909C300.757 185.469 302.876 184.95 304.3 184.394C305.017 184.114 305.499 183.846 305.785 183.614C305.924 183.502 305.986 183.425 306.012 183.383ZM248.023 183.183C248.023 183.183 248.023 183.184 248.024 183.186C248.023 183.184 248.023 183.183 248.023 183.183ZM248.023 183.256C248.022 183.256 248.023 183.255 248.024 183.252C248.023 183.255 248.023 183.256 248.023 183.256ZM306.03 183.416C306.031 183.418 306.031 183.419 306.031 183.419C306.031 183.419 306.03 183.418 306.03 183.416ZM277.013 188.301C293.581 188.348 307.019 186.147 307.027 183.385C307.034 180.624 293.609 178.348 277.041 178.301C260.472 178.254 247.035 180.455 247.027 183.217C247.019 185.978 260.444 188.254 277.013 188.301Z" fill="url(#paint14_linear_103_63)"/>
<path d="M258.781 163.463L254.085 154.463C253.738 153.797 254.221 153 254.972 153H299.672C300.423 153 300.906 153.797 300.559 154.463L295.863 163.463C295.691 163.793 295.349 164 294.977 164H259.667C259.295 164 258.953 163.793 258.781 163.463Z" fill="#EDEFF0"/>
<path d="M225.252 168C222.252 165.429 225.252 131 253.252 112.5H256.252V155H248.752C243.252 155 228.252 170.571 225.252 168Z" fill="url(#paint15_linear_103_63)"/>
<path d="M329.252 168C332.252 165.429 329.252 131 301.252 112.5H298.252V155H305.752C311.252 155 326.253 170.571 329.252 168Z" fill="url(#paint16_linear_103_63)"/>
<path d="M254.252 47L254.252 155H300.252V47C300.252 35 285.752 0 277.252 0C268.252 0 254.252 35 254.252 47Z" fill="url(#paint17_linear_103_63)"/>
<path fill-rule="evenodd" clip-rule="evenodd" d="M277.125 34.5645C273.097 34.558 268.987 35.4899 263.593 37.4433C263.074 37.6313 262.5 37.3628 262.312 36.8435C262.124 36.3242 262.393 35.7508 262.912 35.5627C268.413 33.5708 272.771 32.5574 277.128 32.5645C281.486 32.5716 285.762 33.5996 291.098 35.5646C291.616 35.7555 291.882 36.3303 291.691 36.8486C291.5 37.3668 290.925 37.6322 290.407 37.4414C285.178 35.5158 281.152 34.5711 277.125 34.5645Z" fill="url(#paint18_linear_103_63)"/>
<path d="M270.752 168C270.752 173 273.752 176.5 277.252 176.5C280.252 176.5 283.345 173.5 283.252 168C282.797 140.973 280.252 112 277.252 112C274.252 112 272.565 130.36 270.752 168Z" fill="url(#paint19_linear_103_63)"/>
</g>
<defs>
<filter id="filter0_d_103_63" x="0.15625" y="0" width="552.998" height="988.644" filterUnits="userSpaceOnUse" color-interpolation-filters="sRGB">
<feFlood flood-opacity="0" result="BackgroundImageFix"/>
<feColorMatrix in="SourceAlpha" type="matrix" values="0 0 0 0 0 0 0 0 0 0 0 0 0 0 0 0 0 0 127 0" result="hardAlpha"/>
<feOffset dy="4"/>
<feGaussianBlur stdDeviation="2"/>
<feComposite in2="hardAlpha" operator="out"/>
<feColorMatrix type="matrix" values="0 0 0 0 0 0 0 0 0 0 0 0 0 0 0 0 0 0 0.25 0"/>
<feBlend mode="normal" in2="BackgroundImageFix" result="effect1_dropShadow_103_63"/>
<feBlend mode="normal" in="SourceGraphic" in2="effect1_dropShadow_103_63" result="shape"/>
</filter>
<linearGradient id="paint0_linear_103_63" x1="275.086" y1="162.295" x2="273.832" y2="902.624" gradientUnits="userSpaceOnUse">
<stop stop-color="#7D2042" stop-opacity="0.52"/>
<stop offset="1" stop-color="#FFC0B0" stop-opacity="0"/>
</linearGradient>
<linearGradient id="paint1_linear_103_63" x1="277.086" y1="162.301" x2="274.785" y2="979.297" gradientUnits="userSpaceOnUse">
<stop offset="0.119792" stop-color="#B271E4" stop-opacity="0.31"/>
<stop offset="0.875" stop-color="#FF708A" stop-opacity="0"/>
</linearGradient>
<linearGradient id="paint2_linear_103_63" x1="221.3" y1="146.001" x2="220.5" y2="430" gradientUnits="userSpaceOnUse">
<stop stop-color="#FAFAFA" stop-opacity="0"/>
<stop offset="0.494792" stop-color="#C74646"/>
<stop offset="1" stop-color="#FAFAFA" stop-opacity="0"/>
</linearGradient>
<linearGradient id="paint3_linear_103_63" x1="247.699" y1="122.218" x2="247.257" y2="279.217" gradientUnits="userSpaceOnUse">
<stop stop-color="#FAFAFA" stop-opacity="0"/>
<stop offset="0.494792" stop-color="#C74646"/>
<stop offset="1" stop-color="#FAFAFA" stop-opacity="0"/>
</linearGradient>
<linearGradient id="paint4_linear_103_63" x1="318.682" y1="128.418" x2="318.369" y2="239.418" gradientUnits="userSpaceOnUse">
<stop stop-color="#FAFAFA" stop-opacity="0"/>
<stop offset="0.494792" stop-color="#C74646"/>
<stop offset="1" stop-color="#FAFAFA" stop-opacity="0"/>
</linearGradient>
<linearGradient id="paint5_linear_103_63" x1="335.5" y1="156" x2="335.5" y2="346" gradientUnits="userSpaceOnUse">
<stop stop-color="#FAFAFA" stop-opacity="0"/>
<stop offset="0.494792" stop-color="#C74646"/>
<stop offset="1" stop-color="#FAFAFA" stop-opacity="0"/>
</linearGradient>
<linearGradient id="paint6_linear_103_63" x1="277.523" y1="206.302" x2="277.568" y2="190.303" gradientUnits="userSpaceOnUse">
<stop stop-color="#AB5A46"/>
<stop offset="1" stop-color="#E99682"/>
</linearGradient>
<linearGradient id="paint7_linear_103_63" x1="277.235" y1="234.302" x2="277.303" y2="210.302" gradientUnits="userSpaceOnUse">
<stop stop-color="#AB5A46"/>
<stop offset="1" stop-color="#E99682"/>
</linearGradient>
<linearGradient id="paint8_linear_103_63" x1="275.285" y1="279.297" x2="275.386" y2="243.297" gradientUnits="userSpaceOnUse">
<stop stop-color="#5A46AB"/>
<stop offset="1" stop-color="#E782E9"/>
</linearGradient>
<linearGradient id="paint9_linear_103_63" x1="272.487" y1="371.289" x2="272.645" y2="315.289" gradientUnits="userSpaceOnUse">
<stop stop-color="#5A46AB"/>
<stop offset="1" stop-color="#E782E9"/>
</linearGradient>
<linearGradient id="paint10_linear_103_63" x1="273.504" y1="548.292" x2="273.817" y2="437.293" gradientUnits="userSpaceOnUse">
<stop stop-color="#5A46AB"/>
<stop offset="1" stop-color="#E782E9"/>
</linearGradient>
<linearGradient id="paint11_linear_103_63" x1="276.836" y1="173.301" x2="276.855" y2="166.301" gradientUnits="userSpaceOnUse">
<stop stop-color="#AB5A46"/>
<stop offset="1" stop-color="#E99682"/>
</linearGradient>
<linearGradient id="paint12_linear_103_63" x1="276.806" y1="176.3" x2="276.828" y2="168.3" gradientUnits="userSpaceOnUse">
<stop stop-color="#AB5A46"/>
<stop offset="1" stop-color="#E99682"/>
</linearGradient>
<linearGradient id="paint13_linear_103_63" x1="276.76" y1="180.3" x2="276.786" y2="171.3" gradientUnits="userSpaceOnUse">
<stop stop-color="#AB5A46"/>
<stop offset="1" stop-color="#E99682"/>
</linearGradient>
<linearGradient id="paint14_linear_103_63" x1="276.683" y1="188.3" x2="276.711" y2="178.3" gradientUnits="userSpaceOnUse">
<stop stop-color="#AB5A46"/>
<stop offset="1" stop-color="#E99682"/>
</linearGradient>
<linearGradient id="paint15_linear_103_63" x1="256.252" y1="112.5" x2="208.15" y2="140.031" gradientUnits="userSpaceOnUse">
<stop stop-color="#C51092"/>
<stop offset="1" stop-color="#ED7558"/>
</linearGradient>
<linearGradient id="paint16_linear_103_63" x1="298.252" y1="112.5" x2="346.354" y2="140.031" gradientUnits="userSpaceOnUse">
<stop stop-color="#C51092"/>
<stop offset="1" stop-color="#ED7558"/>
</linearGradient>
<linearGradient id="paint17_linear_103_63" x1="277.252" y1="0" x2="277.252" y2="155" gradientUnits="userSpaceOnUse">
<stop stop-color="#EDEFF0"/>
<stop offset="1" stop-color="white"/>
</linearGradient>
<linearGradient id="paint18_linear_103_63" x1="290.752" y1="33.5644" x2="290.132" y2="39.3752" gradientUnits="userSpaceOnUse">
<stop stop-color="#C5103C"/>
<stop offset="1" stop-color="#ED7558"/>
</linearGradient>
<linearGradient id="paint19_linear_103_63" x1="283.254" y1="112" x2="259.156" y2="116.671" gradientUnits="userSpaceOnUse">
<stop stop-color="#C51092"/>
<stop offset="1" stop-color="#ED7558"/>
</linearGradient>
</defs>
</svg>
